<?xml version="1.0" encoding="utf-8"?>
<!-- Generator: Adobe Illustrator 25.0.1, SVG Export Plug-In . SVG Version: 6.00 Build 0)  -->
<svg version="1.1" id="Layer_1" xmlns="http://www.w3.org/2000/svg" xmlns:xlink="http://www.w3.org/1999/xlink" x="0px" y="0px"
	 viewBox="0 0 128 128" style="enable-background:new 0 0 128 128;" xml:space="preserve">
<style type="text/css">
	.st0{fill:#FFFFFF;}
</style>
<rect width="128" height="128"/>
<g>
	<g>
		<g>
			<path class="st0" d="M55.28,67.21c0.24-0.02,0.35,0.16,0.33,0.55c-0.02,0.39-0.18,0.59-0.48,0.62c-0.27,0.05-0.52,0.18-0.75,0.4
				s-0.35,0.46-0.35,0.73c0.07,2.36-0.22,4.63-0.89,6.81c-0.67,2.18-1.56,4.28-2.68,6.3c-2.21,4.21-4.9,7.95-8.07,11.23
				c-3.16,3.27-6.86,6.03-11.1,8.27c-2.34,1.22-4.74,2.13-7.21,2.74c-2.47,0.61-5.03,0.84-7.69,0.69c-2.21-0.12-4.3-0.72-6.24-1.79
				c-2.31-1.36-3.84-3.15-4.58-5.35c-0.74-2.2-0.6-4.55,0.42-7.03c1.07-2.41,2.76-4.65,5.06-6.74c2.3-2.08,4.98-3.99,8.03-5.73
				c3.05-1.74,6.24-3.28,9.55-4.62c3.31-1.34,6.5-2.48,9.58-3.43c3.08-0.95,5.81-1.67,8.2-2.15c0.66-0.15,1.3-0.28,1.94-0.4
				c0.68-0.12,1.35-0.26,2.01-0.4c0.56-0.1,0.76-0.4,0.59-0.91c-0.56-2.34-1.68-4.35-3.36-6.03c-1.22-1.19-2.54-2.2-3.96-3.03
				c-1.42-0.83-2.93-1.52-4.51-2.08c-4.75-1.68-9.65-2.63-14.71-2.85c-0.34-0.02-0.69-0.04-1.06-0.04
				c-0.41,0.02-0.63,0.24-0.66,0.66c-0.05,0.49-0.07,0.97-0.07,1.46c-0.02,3.82-0.04,7.64-0.04,11.46
				c-0.02,1.68-0.04,3.37-0.04,5.08c0,0.12,0,0.23,0,0.33c0,0.24,0,0.49,0,0.73c-0.12,1.1-0.69,1.47-1.72,1.13
				c-0.39-0.12-0.6-0.38-0.62-0.77c-0.05-0.56-0.06-1.12-0.04-1.68c-0.02-3.46-0.04-6.9-0.04-10.33c0-1.73,0-3.44,0-5.15
				c0-0.15,0-0.29,0-0.44c0-0.41-0.01-0.84-0.04-1.28c0-0.46-0.07-0.77-0.2-0.91c-0.13-0.15-0.42-0.23-0.86-0.26
				c-0.19,0-0.38,0-0.55,0c-0.46-0.02-0.91-0.06-1.35-0.11c-0.39-0.05-0.66-0.26-0.8-0.62c-0.12-0.46,0-0.84,0.37-1.13
				c0.49-0.39,1-0.77,1.53-1.13c0.22-0.15,0.41-0.27,0.58-0.36c0.41-0.27,0.71-0.49,0.89-0.66c0.18-0.17,0.29-0.37,0.33-0.58
				c0.04-0.22,0.05-0.56,0.05-1.02c-0.02-0.27-0.04-0.58-0.04-0.95c0.02-2.75,0.04-5.51,0.04-8.29c0-1.53,0-3.08,0-4.64
				c0-0.02,0-0.06,0-0.11c0-0.54,0.02-1.06,0.07-1.57c0.05-0.66,0.44-0.97,1.17-0.95c0.71-0.02,1.11,0.28,1.2,0.91
				c0.05,0.63,0.07,1.28,0.07,1.93c0,1.66,0,3.31,0,4.97c0,2.02,0.01,4.03,0.04,6.02c-0.02,0.15-0.04,0.28-0.04,0.4
				c-0.05,0.56,0.04,1.21,0.26,1.94c1.61-0.93,3.55-2.1,5.82-3.52c2.28-1.42,4.59-2.95,6.95-4.58c2.36-1.63,4.45-3.26,6.28-4.89
				c1.83-1.63,3.09-3.14,3.8-4.53c0.75-1.58,0.41-2.88-1.02-3.91c-1.78-1.19-4.07-1.84-6.88-1.95s-5.77,0.19-8.89,0.89
				c-3.12,0.71-6.01,1.69-8.69,2.96c-2.68,1.27-4.8,2.69-6.35,4.27c-0.49,0.51-0.93,1.12-1.31,1.84c-0.39,0.72-0.69,1.43-0.91,2.14
				c-0.17,0.44-0.5,0.69-0.99,0.77c-0.49,0.07-0.9-0.06-1.24-0.4c-0.17-0.24-0.22-0.51-0.15-0.8c0.22-0.83,0.6-1.58,1.13-2.26
				c1.73-2.22,4.18-4.15,7.36-5.81c3.18-1.65,6.62-2.91,10.33-3.76s7.23-1.2,10.57-1.06c3.33,0.15,6.02,0.9,8.07,2.26
				c2.09,1.44,2.54,3.27,1.35,5.51c-0.61,1.12-1.5,2.26-2.68,3.41c-1.18,1.16-2.43,2.25-3.76,3.29c-1.33,1.03-2.5,1.93-3.52,2.68
				c-1.87,1.36-3.8,2.67-5.77,3.92c-1.97,1.25-3.96,2.48-5.95,3.67c-0.05,0.02-0.1,0.06-0.15,0.11c-1,0.56-1.97,1.14-2.92,1.75
				c-0.68,0.51-0.89,1.19-0.62,2.04c0.02,0.07,0.08,0.15,0.16,0.24c0.09,0.09,0.18,0.13,0.27,0.13c0.39,0.07,0.78,0.11,1.17,0.11
				c0.02,0,0.06,0,0.11,0c5.26,0.15,10.38,1.05,15.37,2.7c2.77,0.88,5.35,2.15,7.74,3.83c1.44,1.02,2.66,2.19,3.67,3.51
				s1.76,2.82,2.25,4.53c0.15,0.56,0.32,0.9,0.53,1.02C54.19,67.29,54.62,67.31,55.28,67.21z M51.33,71.37
				c0.1-1,0.02-1.61-0.22-1.83c-0.24-0.22-0.86-0.21-1.86,0.04c-2.39,0.49-5.08,1.17-8.07,2.05c-2.99,0.88-6.07,1.95-9.24,3.21
				c-3.16,1.27-6.21,2.72-9.13,4.36c-2.92,1.64-5.5,3.47-7.72,5.47c-2.23,2.01-3.9,4.22-5.02,6.63c-0.8,1.83-1.17,3.55-1.1,5.17
				c0.07,1.62,0.49,3.02,1.24,4.2c0.75,1.18,1.75,2.01,2.99,2.5c1.58,0.61,3.23,0.94,4.93,0.99c0.12,0,0.23-0.01,0.33-0.04
				c0.24-0.03,0.49-0.04,0.73-0.04c3.21-0.31,6.24-1.19,9.09-2.63c5.21-2.58,9.6-5.9,13.18-9.97c3.58-4.07,6.41-8.79,8.51-14.17
				C50.71,75.4,51.16,73.41,51.33,71.37z"/>
		</g>
	</g>
	<g>
		<path class="st0" d="M61.66,81.13l6.03-14.95l5.63,14.95l5.18-14.05h1.22l-6.4,17.24l-5.63-15.07l-6.18,15.07l-5.58-17.24h1.22
			L61.66,81.13z"/>
		<path class="st0" d="M93.49,74.13v-7.05h1.07V83.7h-1.07v-8.57H83.4v8.57h-1.07V67.08h1.07v7.05H93.49z"/>
		<path class="st0" d="M100.12,83.7h-1.07V67.08h1.07V83.7z"/>
		<path class="st0" d="M108.02,83.7h-1.07V68.07h-4.26v-1h9.67v1h-4.34V83.7z"/>
		<path class="st0" d="M116.02,68.07v6.03h6.73v1h-6.73v7.6h6.88v1h-7.95V67.08h7.95v1H116.02z"/>
	</g>
	<g>
		<path class="st0" d="M92.05,95.5v-1.21h2.43c0.75,0,1.29-0.39,1.29-0.96c0-0.57-0.54-0.97-1.29-0.97h-0.55
			c-1.14,0-1.99-0.78-1.99-1.89c0-1.08,0.87-1.91,2.16-1.91h2.3v1.21h-2.37c-0.51,0-0.83,0.32-0.83,0.71c0,0.43,0.33,0.75,0.83,0.75
			h0.68c1.24,0,2.13,0.88,2.13,2.13c0,1.24-0.95,2.14-2.37,2.14H92.05z"/>
		<path class="st0" d="M99.84,95.5c-1.39,0-2.42-1.08-2.42-2.45c0-1.4,1-2.37,2.42-2.37h1.48v3.14h-2.51
			c0.22,0.31,0.58,0.5,1.03,0.5h1.48v1.17H99.84z M100.14,91.85h-0.29c-0.54,0-0.97,0.3-1.15,0.76h1.45V91.85z M99.14,90h-0.37
			l0.53-0.93h0.66L99.14,90z"/>
		<path class="st0" d="M103.49,90.68c1.93,0,2.95,0.99,2.95,3.13v1.69h-1.21v-1.69c0-1.35-0.53-1.92-1.74-1.92h-0.32v3.61h-1.21
			v-4.82H103.49z"/>
		<path class="st0" d="M109.4,95.5c-1.39,0-2.42-1.08-2.42-2.45c0-1.4,1-2.37,2.42-2.37h1.48v3.14h-2.51
			c0.22,0.31,0.58,0.5,1.03,0.5h1.48v1.17H109.4z M109.7,91.85h-0.29c-0.54,0-0.97,0.3-1.15,0.76h1.45V91.85z M108.7,90h-0.37
			l0.53-0.93h0.66L108.7,90z"/>
		<path class="st0" d="M111.78,97.62v-1.21h0.6c0.61,0,1.05-0.15,1.32-0.45c0.12-0.12,0.21-0.28,0.27-0.45h-0.15
			c-1.39,0-2.42-1.08-2.42-2.45c0-1.4,1-2.37,2.42-2.37h1.51v3.81c0,2.14-1.02,3.13-2.95,3.13H111.78z M113.82,91.85
			c-0.72,0-1.25,0.54-1.25,1.26c0,0.69,0.51,1.22,1.25,1.22h0.3v-2.47H113.82z"/>
		<path class="st0" d="M118.24,95.5c-1.39,0-2.42-1.08-2.42-2.45c0-1.4,1-2.37,2.42-2.37h1.48v4.82H118.24z M118.24,91.85
			c-0.72,0-1.25,0.54-1.25,1.26c0,0.69,0.51,1.22,1.25,1.22h0.3v-2.47H118.24z"/>
		<path class="st0" d="M120.36,95.5v-6.94h1.21v6.94H120.36z"/>
	</g>
</g>
</svg>
